<svg xmlns="http://www.w3.org/2000/svg" width="500" height="400" viewBox="0 0 500 400">
  <!-- Sfondo con gradiente leggero -->
  <defs>
    <linearGradient id="heroGradient" x1="0%" y1="0%" x2="100%" y2="100%">
      <stop offset="0%" stop-color="#f8fafc" />
      <stop offset="100%" stop-color="#eff6ff" />
    </linearGradient>
  </defs>
  
  <!-- Sfondo -->
  <rect x="0" y="0" width="500" height="400" fill="url(#heroGradient)" rx="20" ry="20" />
  
  <!-- Rappresentazione di un modello linguistico -->
  <g transform="translate(50, 50)">
    <!-- Documento con testo -->
    <rect x="0" y="0" width="180" height="220" fill="white" stroke="#4f46e5" stroke-width="2" rx="10" ry="10" />
    
    <!-- Linee di testo sul documento -->
    <line x1="20" y1="40" x2="160" y2="40" stroke="#4f46e5" stroke-width="2" />
    <line x1="20" y1="70" x2="140" y2="70" stroke="#4f46e5" stroke-width="2" />
    <line x1="20" y1="100" x2="160" y2="100" stroke="#4f46e5" stroke-width="2" />
    <line x1="20" y1="130" x2="120" y2="130" stroke="#4f46e5" stroke-width="2" />
    <line x1="20" y1="160" x2="150" y2="160" stroke="#4f46e5" stroke-width="2" />
    <line x1="20" y1="190" x2="100" y2="190" stroke="#4f46e5" stroke-width="2" />
    
    <!-- Freccia di trasformazione -->
    <path d="M200,110 L230,110 L230,90 L260,120 L230,150 L230,130 L200,130 Z" fill="#7c3aed" />
    
    <!-- Modello AI personalizzato -->
    <g transform="translate(280, 0)">
      <!-- Contorno del cervello/chip AI -->
      <rect x="0" y="0" width="120" height="220" fill="#4f46e5" rx="15" ry="15" />
      
      <!-- Circuiti interni -->
      <circle cx="30" cy="40" r="10" fill="white" />
      <circle cx="90" cy="40" r="10" fill="white" />
      <circle cx="30" cy="110" r="10" fill="white" />
      <circle cx="90" cy="110" r="10" fill="white" />
      <circle cx="30" cy="180" r="10" fill="white" />
      <circle cx="90" cy="180" r="10" fill="white" />
      
      <!-- Connessioni -->
      <line x1="30" y1="40" x2="90" y2="40" stroke="white" stroke-width="2" />
      <line x1="30" y1="110" x2="90" y2="110" stroke="white" stroke-width="2" />
      <line x1="30" y1="180" x2="90" y2="180" stroke="white" stroke-width="2" />
      
      <line x1="30" y1="40" x2="30" y2="110" stroke="white" stroke-width="2" />
      <line x1="30" y1="110" x2="30" y2="180" stroke="white" stroke-width="2" />
      <line x1="90" y1="40" x2="90" y2="110" stroke="white" stroke-width="2" />
      <line x1="90" y1="110" x2="90" y2="180" stroke="white" stroke-width="2" />
      
      <line x1="30" y1="40" x2="90" y2="110" stroke="white" stroke-width="2" />
      <line x1="30" y1="110" x2="90" y2="180" stroke="white" stroke-width="2" />
      <line x1="90" y1="40" x2="30" y2="110" stroke="white" stroke-width="2" />
      <line x1="90" y1="110" x2="30" y2="180" stroke="white" stroke-width="2" />
    </g>
  </g>
  
  <!-- Elementi decorativi -->
  <g transform="translate(100, 300)">
    <!-- Icone di dispositivi -->
    <rect x="0" y="0" width="60" height="40" fill="#eff6ff" stroke="#4f46e5" stroke-width="2" rx="5" ry="5" />
    <rect x="80" y="0" width="40" height="60" fill="#eff6ff" stroke="#4f46e5" stroke-width="2" rx="5" ry="5" />
    <rect x="140" y="0" width="50" height="50" fill="#eff6ff" stroke="#4f46e5" stroke-width="2" rx="25" ry="25" />
    
    <!-- Linee di connessione -->
    <line x1="30" y1="0" x2="230" y2="-100" stroke="#7c3aed" stroke-width="2" stroke-dasharray="5,5" />
    <line x1="100" y1="0" x2="300" y2="-80" stroke="#7c3aed" stroke-width="2" stroke-dasharray="5,5" />
    <line x1="165" y1="0" x2="350" y2="-120" stroke="#7c3aed" stroke-width="2" stroke-dasharray="5,5" />
  </g>
</svg>